     The Last Samurai(2003) 1080p BDRip In[Hindi-Tamil-English]AC3-DGrea8


Summary:-


In the 1870s, Captain Nathan Algren, a cynical veteran of the American Civil war who will work for anyone, is hired by Americans who want lucrative contracts with the Emperor of Japan to train the peasant conscripts for the first standing imperial army in modern warfare using firearms. The imperial Omura cabinet's first priority is to repress a rebellion of traditionalist Samurai -hereditary warriors- who remain devoted to the sacred dynasty but reject the Westernizing policy and even refuse firearms. Yet when his ill-prepared superior force sets out too soon, their panic allows the sword-wielding samurai to crush them. Badly wounded Algren's courageous stand makes the samurai leader Katsumoto spare his life; once nursed to health he learns to know and respect the old Japanese way, and participates as advisor in Katsumoto's failed attempt to save the Bushido tradition, but Omura gets repressive laws enacted- he must now choose to honor his loyalty to one of the embittered sides when ... Written by KGF Vissers


Cast:-


Ken Watanabe..............Katsumoto
Tom Cruise................Nathan Algren
William Atherton..........Winchester Rep
Chad Lindberg.............Winchester Rep Assistant
Ray Godshall Sr...........Convention Hall Attendee
Billy Connolly............Zebulon Gant
Tony Goldwyn..............Colonel Bagley
Masato Haradz.............Omura
Masashi Odate.............Omura's Companion
John Koyama...............Omura's Bodyguard
Timothy Spall.............Simon Graham
Shichinosuke Nakamura.....Emperor Meiji
Togo Igawa................General Hasegawa
Satoshi Nikaido...........N.C.O.
Shintaro Wada.............Young Recruit



Video & Audio Info.:-

Director: Edward Zwick
Writers: John Logan (story), John Logan (screenplay)
Stars: Tom Cruise, Ken Watanabe, Billy Connolly
Release Date: 5 December 2003 (USA)
Filming Locations: Santa Clarita, California, USA
Genres: Action | Adventure | Drama | History | War
Box Office
Budget: $140,000,000 (estimated)
Opening Weekend: $136,898 (Finland) (30 January 2004)
Gross: $111,110,575 (USA) (2 April 2004)
Runtime: 154 min


Video
ID : 1
Format : AVC
Format/Info : Advanced Video Codec
Format profile : Main@L4.0
Format settings, CABAC : Yes
Format settings, ReFrames : 4 frames
Format settings, GOP : M=3, N=32
Muxing mode : Header stripping
Codec ID : V_MPEG4/ISO/AVC
Duration : 2h 27mn
Width : 1 920 pixels
Height : 800 pixels
Display aspect ratio : 2.40:1
Frame rate mode : Variable
Frame rate : 25.000 fps
Color space : YUV
Chroma subsampling : 4:2:0
Bit depth : 8 bits
Scan type : Progressive

Audio #1
ID : 2
Format : AAC
Format/Info : Advanced Audio Codec
Format profile : LC
Codec ID : A_AAC
Duration : 2h 27mn
Channel(s) : 6 channels
Channel positions : Front: L C R, Side: L R, LFE
Sampling rate : 48.0 KHz
Compression mode : Lossy
Title : English
Language : English

Audio #2
ID : 3
Format : AC-3
Format/Info : Audio Coding 3
Mode extension : CM (complete main)
Muxing mode : Header stripping
Codec ID : A_AC3
Duration : 2h 27mn
Bit rate mode : Constant
Bit rate : 224 Kbps
Channel(s) : 2 channels
Channel positions : Front: L R
Sampling rate : 48.0 KHz
Bit depth : 16 bits
Compression mode : Lossy
Delay relative to video : 1s 0ms
Stream size : 237 MiB (7%)
Title : Hindi 2Ch.Ac3
Language : Hindi

Audio
ID : 1
Format : AC-3
Format/Info : Audio Coding 3
Mode extension : CM (complete main)
Muxing mode : Header stripping
Codec ID : A_AC3
Duration : 2h 27mn
Bit rate mode : Constant
Bit rate : 224 Kbps
Channel(s) : 2 channels
Channel positions : Front: L R
Sampling rate : 48.0 KHz
Bit depth : 16 bits
Compression mode : Lossy
Stream size : 237 MiB
Title : Taml 2Ch.Ac3
Language : Tamil

Subtitle Languages : English



Screen Shoots:-

     
http://www.shotpix.com/images/91326587250145344088.jpg
 
http://www.shotpix.com/images/20756832181131000011.jpg
 
http://www.shotpix.com/images/81705390580246630187.jpg
 
http://www.shotpix.com/images/27732403304293582818.jpg
 
http://www.shotpix.com/images/97322558932745023172.jpg


Note:--

 Check The Sample Video In This Torrent			
		